<?xml version="1.0" encoding="UTF-8"?>
<svg version="1.1" xmlns="http://www.w3.org/2000/svg" width="512" height="512">
<path d="M0 0 C3 1.625 3 1.625 5 4 C5.39479514 5.98878051 5.73563453 7.98972091 6 10 C8.91821463 10.13510253 11.83017652 10.2341305 14.75 10.3125 C15.575 10.35439453 16.4 10.39628906 17.25 10.43945312 C19.59770063 10.4867858 21.69704297 10.46564668 24 10 C26.38718755 7.70401046 26.38718755 7.70401046 28 5 C32.77531426 1.8227612 37.60910683 2.96508884 43 4 C44.49822934 4.45042352 45.9901168 4.92225084 47.4765625 5.41015625 C58.90280253 9.14691244 68.62656446 10.35951519 80.65820312 10.03466797 C95.8702862 9.70921496 109.7450739 13.26855884 121 24 C121.76957031 25.52947266 121.76957031 25.52947266 122.5546875 27.08984375 C125.23047877 30.27429183 125.58171212 30.44123101 129.45703125 30.8828125 C131.2410081 30.98638203 133.02649881 31.06584098 134.8125 31.125 C155.82172841 32.51686363 174.70394099 39.06448468 189 55 C195.77654273 63.61446115 200.70207597 73.88472567 201.5 84.875 C201.78456293 87.60090358 201.78456293 87.60090358 203 90 C206.03777523 92.19791972 209.13480824 93.68741398 212.53515625 95.26171875 C222.7245682 100.37365598 230.34254003 109.4238255 234.375 119.9375 C236.45695188 125.29684709 239.13167894 128.61310086 243.0703125 132.72265625 C251.17072904 142.28245957 252.69115445 154.95416536 252 167 C251.70114192 168.44039798 251.39044298 169.87844425 251.0625 171.3125 C250.6231391 174.83450089 250.6231391 174.83450089 252.17578125 176.55078125 C253.37698873 177.66362404 254.59641143 178.75695641 255.828125 179.8359375 C271.42891261 195.38060717 276.30214564 217.702892 276.43753052 238.88034058 C276.43735396 251.14378909 275.94323059 263.05919284 273 275 C272.69400879 276.29357422 272.69400879 276.29357422 272.38183594 277.61328125 C266.10495511 303.74410972 255.30718177 328.66722844 232 344 C224.26728801 348.32491257 216.80265805 350.97684536 208 352 C207.938125 353.216875 207.87625 354.43375 207.8125 355.6875 C206.09579719 370.46506339 197.30765666 383.63874326 186 393 C170.37913657 404.32417117 152.42619292 411.26462361 133 412 C132.01773437 412.0515625 131.03546875 412.103125 130.0234375 412.15625 C122.6414289 412.36370692 115.5539946 411.7013525 108.25 410.6875 C106.95582153 410.51105957 106.95582153 410.51105957 105.63549805 410.33105469 C99.56447221 409.42460272 93.83181979 407.90523776 88 406 C88.4759315 409.25048232 88.95631049 412.50029224 89.4375 415.75 C89.57220703 416.67039062 89.70691406 417.59078125 89.84570312 418.5390625 C90.04389648 419.87324219 90.04389648 419.87324219 90.24609375 421.234375 C90.36654053 422.05131836 90.4869873 422.86826172 90.61108398 423.70996094 C90.97358614 425.84446829 91.46654541 427.90321162 92 430 C92.47009441 434.30791433 92.49321625 437.86560262 90.75 441.875 C82.94198342 447.90846736 69.71907276 448.20778797 60.09838867 449.78979492 C57.67293284 450.18990303 55.24957764 450.60134868 52.82617188 451.01367188 C51.26313383 451.27411653 49.69998637 451.53390564 48.13671875 451.79296875 C47.42303635 451.91480026 46.70935394 452.03663177 45.9740448 452.16215515 C40.68832513 453.01875738 35.44798662 453.85394882 30.3125 452.0625 C24.75658683 447.10722609 23.16293072 438.6428342 21.44921875 431.63671875 C21.11637627 430.32861992 21.11637627 430.32861992 20.77680969 428.99409485 C19.84161886 425.31868694 18.92438951 421.63888846 18.00805664 417.95874023 C10.4538553 387.75553623 0.524683 358.524683 -22 336 C-23.68008824 335.98318022 -25.36096859 336.0375461 -27.0390625 336.12109375 C-28.08715088 336.16967529 -29.13523926 336.21825684 -30.21508789 336.26831055 C-31.90299438 336.35205933 -31.90299438 336.35205933 -33.625 336.4375 C-64.36118576 337.78327814 -95.32550737 336.57266768 -119.67578125 315.20703125 C-130.63245947 304.80279059 -139.65166903 291.17765085 -140.09765625 275.5859375 C-140.06542969 274.73257812 -140.03320312 273.87921875 -140 273 C-140.91749023 273.02827881 -140.91749023 273.02827881 -141.85351562 273.05712891 C-147.94183252 273.16310382 -153.54757929 272.62422908 -159.5 271.375 C-160.35803223 271.19678711 -161.21606445 271.01857422 -162.10009766 270.83496094 C-181.20347149 266.68647887 -198.03436283 260.19796755 -212 246 C-212.58394531 245.41476562 -213.16789062 244.82953125 -213.76953125 244.2265625 C-221.9807214 235.37094983 -225.75236658 223.59485235 -226.3125 211.6875 C-226.66421109 206.99552436 -228.32096533 205.00001221 -231.5 201.67578125 C-236.85171982 195.69690677 -236.68052189 187.63341055 -236.44140625 180.0390625 C-236.08657535 175.1946509 -234.3498016 171.26170369 -231.99609375 167.0390625 C-230.76767543 163.29118229 -231.16627772 160.62139355 -231.66967773 156.75683594 C-234.15451063 136.01867407 -231.60489802 118.06590046 -219.44921875 100.796875 C-213.26814127 93.00534309 -203.97196175 87.08050484 -195 83 C-194.34 83 -193.68 83 -193 83 C-192.95875 82.071875 -192.9175 81.14375 -192.875 80.1875 C-191.37351445 70.00619386 -183.66043063 60.24068327 -175.6171875 54.21484375 C-168.78395781 49.85571447 -161.97586553 46.96700836 -153.80078125 46.91796875 C-145.83267562 47.2662273 -145.83267562 47.2662273 -138.890625 44.22265625 C-137.45936959 41.94566279 -137.45936959 41.94566279 -136.28125 39.47265625 C-131.37403444 30.00232866 -119.71047769 24.53037348 -109.94970703 21.32714844 C-102.51021907 19.14628112 -95.38941237 17.90044071 -87.625 17.75 C-78.60524516 17.37577613 -71.29409902 13.613193 -63.20361328 9.95849609 C-55.8839797 6.77470688 -48.03832945 3.85166722 -40 5 C-37.1899654 6.79363911 -35.49059532 8.01880935 -34 11 C-27.73 10.67 -21.46 10.34 -15 10 C-14.67 8.02 -14.34 6.04 -14 4 C-10.10035789 -0.630825 -5.69371608 -1.0108409 0 0 Z " fill="#FC8E8C" transform="translate(236,30)"/>
<path d="M0 0 C11.42123997 3.74815732 21.14468394 4.95319784 33.17382812 4.62841797 C48.3859112 4.30296496 62.2606989 7.86230884 73.515625 18.59375 C74.28519531 20.12322266 74.28519531 20.12322266 75.0703125 21.68359375 C77.74610377 24.86804183 78.09733712 25.03498101 81.97265625 25.4765625 C83.7566331 25.58013203 85.54212381 25.65959098 87.328125 25.71875 C108.33735341 27.11061363 127.21956599 33.65823468 141.515625 49.59375 C148.29216773 58.20821115 153.21770097 68.47847567 154.015625 79.46875 C154.30018793 82.19465358 154.30018793 82.19465358 155.515625 84.59375 C158.55340023 86.79166972 161.65043324 88.28116398 165.05078125 89.85546875 C175.2401932 94.96740598 182.85816503 104.0175755 186.890625 114.53125 C188.97257688 119.89059709 191.64730394 123.20685086 195.5859375 127.31640625 C203.68635404 136.87620957 205.20677945 149.54791536 204.515625 161.59375 C204.21676692 163.03414798 203.90606798 164.47219425 203.578125 165.90625 C203.1387641 169.42825089 203.1387641 169.42825089 204.69140625 171.14453125 C205.89261373 172.25737404 207.11203643 173.35070641 208.34375 174.4296875 C223.94453761 189.97435717 228.81777064 212.296642 228.95315552 233.47409058 C228.95297896 245.73753909 228.45885559 257.65294284 225.515625 269.59375 C225.20963379 270.88732422 225.20963379 270.88732422 224.89746094 272.20703125 C218.62058011 298.33785972 207.82280677 323.26097844 184.515625 338.59375 C176.78291301 342.91866257 169.31828305 345.57059536 160.515625 346.59375 C160.45375 347.810625 160.391875 349.0275 160.328125 350.28125 C158.61142219 365.05881339 149.82328166 378.23249326 138.515625 387.59375 C122.89476157 398.91792117 104.94181792 405.85837361 85.515625 406.59375 C84.53335937 406.6453125 83.55109375 406.696875 82.5390625 406.75 C75.1570539 406.95745692 68.0696196 406.2951025 60.765625 405.28125 C59.47144653 405.10480957 59.47144653 405.10480957 58.15112305 404.92480469 C52.08009721 404.01835272 46.34744479 402.49898776 40.515625 400.59375 C40.9915565 403.84423232 41.47193549 407.09404224 41.953125 410.34375 C42.08783203 411.26414062 42.22253906 412.18453125 42.36132812 413.1328125 C42.55952148 414.46699219 42.55952148 414.46699219 42.76171875 415.828125 C42.88216553 416.64506836 43.0026123 417.46201172 43.12670898 418.30371094 C43.48921114 420.43821829 43.98217041 422.49696162 44.515625 424.59375 C44.98571941 428.90166433 45.00884125 432.45935262 43.265625 436.46875 C35.45760842 442.50221736 22.23469776 442.80153797 12.61401367 444.38354492 C10.18855784 444.78365303 7.76520264 445.19509868 5.34179688 445.60742188 C3.77875883 445.86786653 2.21561137 446.12765564 0.65234375 446.38671875 C-0.06133865 446.50855026 -0.77502106 446.63038177 -1.5103302 446.75590515 C-6.79604987 447.61250738 -12.03638838 448.44769882 -17.171875 446.65625 C-22.72778817 441.70097609 -24.32144428 433.2365842 -26.03515625 426.23046875 C-26.36799873 424.92236992 -26.36799873 424.92236992 -26.70756531 423.58784485 C-27.64275614 419.91243694 -28.55998549 416.23263846 -29.47631836 412.55249023 C-37.0305197 382.34928623 -46.959692 353.118433 -69.484375 330.59375 C-71.16446324 330.57693022 -72.84534359 330.6312961 -74.5234375 330.71484375 C-75.57152588 330.76342529 -76.61961426 330.81200684 -77.69946289 330.86206055 C-79.38736938 330.94580933 -79.38736938 330.94580933 -81.109375 331.03125 C-111.84556076 332.37702814 -142.80988237 331.16641768 -167.16015625 309.80078125 C-178.11683447 299.39654059 -187.13604403 285.77140085 -187.58203125 270.1796875 C-187.54980469 269.32632812 -187.51757812 268.47296875 -187.484375 267.59375 C-188.40186523 267.62202881 -188.40186523 267.62202881 -189.33789062 267.65087891 C-195.42620752 267.75685382 -201.03195429 267.21797908 -206.984375 265.96875 C-207.84240723 265.79053711 -208.70043945 265.61232422 -209.58447266 265.42871094 C-228.68784649 261.28022887 -245.51873783 254.79171755 -259.484375 240.59375 C-260.06832031 240.00851562 -260.65226562 239.42328125 -261.25390625 238.8203125 C-269.4650964 229.96469983 -273.23674158 218.18860235 -273.796875 206.28125 C-274.14858609 201.58927436 -275.80534033 199.59376221 -278.984375 196.26953125 C-284.33609482 190.29065677 -284.16489689 182.22716055 -283.92578125 174.6328125 C-283.57095035 169.7884009 -281.8341766 165.85545369 -279.48046875 161.6328125 C-278.25205043 157.88493229 -278.65065272 155.21514355 -279.15405273 151.35058594 C-281.63888563 130.61242407 -279.08927302 112.65965046 -266.93359375 95.390625 C-260.75251627 87.59909309 -251.45633675 81.67425484 -242.484375 77.59375 C-241.824375 77.59375 -241.164375 77.59375 -240.484375 77.59375 C-240.443125 76.665625 -240.401875 75.7375 -240.359375 74.78125 C-238.85788945 64.59994386 -231.14480563 54.83443327 -223.1015625 48.80859375 C-216.26833281 44.44946447 -209.46024053 41.56075836 -201.28515625 41.51171875 C-193.31705062 41.8599773 -193.31705062 41.8599773 -186.375 38.81640625 C-184.94374459 36.53941279 -184.94374459 36.53941279 -183.765625 34.06640625 C-178.85840944 24.59607866 -167.19485269 19.12412348 -157.43408203 15.92089844 C-149.99459407 13.74003112 -142.87378737 12.49419071 -135.109375 12.34375 C-126.08962016 11.96952613 -118.77847402 8.206943 -110.68798828 4.55224609 C-103.3683547 1.36845688 -95.52270445 -1.55458278 -87.484375 -0.40625 C-84.6743404 1.38738911 -82.97497032 2.61255935 -81.484375 5.59375 C-81.10872973 9.50046079 -81.2106953 12.00321859 -82.87109375 15.5859375 C-86.52176661 19.78775828 -90.39360248 20.84573734 -95.609375 22.46875 C-96.98802734 22.92894531 -96.98802734 22.92894531 -98.39453125 23.3984375 C-105.06867327 25.59375 -105.06867327 25.59375 -107.484375 25.59375 C-107.07541992 26.42567871 -107.07541992 26.42567871 -106.65820312 27.27441406 C-105.4254583 29.79363874 -104.20482773 32.318549 -102.984375 34.84375 C-102.34048828 36.15279297 -102.34048828 36.15279297 -101.68359375 37.48828125 C-101.27753906 38.33261719 -100.87148437 39.17695312 -100.453125 40.046875 C-100.07607422 40.82192383 -99.69902344 41.59697266 -99.31054688 42.39550781 C-98.484375 44.59375 -98.484375 44.59375 -98.484375 48.59375 C-97.948125 48.3771875 -97.411875 48.160625 -96.859375 47.9375 C-87.46810657 44.60112832 -76.30509671 43.73382916 -66.859375 47.34375 C-57.66282755 51.75010913 -49.64420329 58.10934149 -45.484375 67.59375 C-44.70235243 71.8102222 -44.99765696 74.80493111 -47.296875 78.53125 C-50.12640893 81.19909627 -52.0175459 81.5418801 -55.859375 81.96875 C-59.484375 81.59375 -59.484375 81.59375 -62.046875 79.59375 C-63.38269109 77.94966865 -64.69949108 76.28635735 -65.9140625 74.55078125 C-68.96022766 70.16855972 -68.96022766 70.16855972 -73.234375 67.09375 C-77.73967615 66.40062675 -81.94038378 66.2220964 -86.484375 66.59375 C-87.61359375 66.64982422 -87.61359375 66.64982422 -88.765625 66.70703125 C-91.44346898 67.20163303 -92.55226692 67.63474482 -94.484375 69.59375 C-95.91696369 73.57608371 -96.81968082 77.46407895 -97.59765625 81.61328125 C-98.55639914 86.48737633 -100.29350056 90.33671587 -103.734375 93.96875 C-107.31119775 96.08232708 -109.38911701 96.17878686 -113.484375 95.59375 C-116.23766521 93.79812595 -118.01064961 92.54120078 -119.484375 89.59375 C-119.80130383 84.99828192 -119.81486543 82.36489435 -117.984375 78.09375 C-114.74990441 70.24745053 -115.40143812 59.66712476 -118.109375 51.78125 C-120.13569866 46.98053336 -122.62199457 42.4224025 -125.21484375 37.90625 C-126.484375 35.59375 -126.484375 35.59375 -127.484375 32.59375 C-150.12052261 35.10845889 -150.12052261 35.10845889 -167.921875 48.33203125 C-170.13858017 51.54071199 -171.77669101 54.92768009 -173.34375 58.4921875 C-174.484375 60.59375 -174.484375 60.59375 -177.484375 62.59375 C-179.79345703 62.77319336 -179.79345703 62.77319336 -182.4921875 62.68359375 C-183.47960937 62.66361328 -184.46703125 62.64363281 -185.484375 62.62304688 C-187.5444108 62.56253332 -189.60432042 62.49753382 -191.6640625 62.42773438 C-199.49163577 62.28071389 -205.68193881 63.16081334 -212.34765625 67.42578125 C-217.8337061 72.99206583 -220.90662429 80.97174428 -221.8671875 88.65625 C-222.76588715 91.47748435 -224.21267064 92.72316152 -226.484375 94.59375 C-229.18359375 95.83203125 -229.18359375 95.83203125 -232.171875 96.90625 C-242.90575445 101.17362159 -250.44659372 108.06270752 -255.58984375 118.37109375 C-259.67335672 128.5174644 -259.61327238 138.95007767 -256.921875 149.46875 C-255.26541266 155.99107046 -254.51701446 161.07750063 -257.8984375 167.12109375 C-258.98337877 168.83077608 -260.07437724 170.53663208 -261.171875 172.23828125 C-263.01680739 175.54927598 -263.13780459 177.89098232 -262.484375 181.59375 C-260.51476712 186.18950171 -257.28937152 188.53320932 -253.484375 191.59375 C-252.11272619 194.33704762 -252.386991 196.90425954 -252.34765625 199.91674805 C-252.11608991 211.55406993 -250.08442046 220.46665315 -241.484375 228.90625 C-226.37690243 241.0425863 -202.80009024 248.05861024 -183.484375 246.59375 C-182.824375 246.26375 -182.164375 245.93375 -181.484375 245.59375 C-174.61589544 244.90690204 -174.61589544 244.90690204 -170.25390625 247.5546875 C-167.70460369 249.82886811 -167.06668602 251.38749201 -166.85546875 254.78125 C-166.85630268 256.38556916 -166.87944921 257.98999169 -166.921875 259.59375 C-166.7427587 272.87249231 -162.7095316 283.03756032 -153.5234375 292.64453125 C-140.0955114 305.51498028 -122.0323368 309.77114476 -103.984375 309.78125 C-102.89511719 309.79349609 -101.80585938 309.80574219 -100.68359375 309.81835938 C-82.22387809 309.8500046 -64.7871075 307.13988971 -46.921875 302.65625 C-29.66703164 298.36856984 -12.36731886 294.56089756 5.453125 293.71875 C6.27490234 293.65945313 7.09667969 293.60015625 7.94335938 293.5390625 C12.68129357 293.29353393 15.68964513 293.44294305 19.515625 296.59375 C21.99948559 300.31954089 21.8960462 302.18086402 21.515625 306.59375 C20.19638332 309.71826978 19.3756385 311.17265506 16.31274414 312.67236328 C13.1674158 313.70845206 10.23948353 314.14522486 6.94921875 314.5234375 C5.66805176 314.67707764 4.38688477 314.83071777 3.06689453 314.98901367 C2.39482971 315.0671933 1.72276489 315.14537292 1.03033447 315.22592163 C-9.78714911 316.49049891 -20.50867882 317.94251571 -31.15454102 320.28662109 C-36.25673524 321.40587146 -41.28284902 322.08590871 -46.484375 322.59375 C-44.54547146 325.53897483 -42.59657163 328.44067381 -40.51171875 331.28515625 C-20.61058874 358.62596103 -9.88289241 392.45875533 -4.484375 425.59375 C-2.875625 425.160625 -2.875625 425.160625 -1.234375 424.71875 C6.26712822 422.85004813 13.76793469 421.43281875 21.515625 421.59375 C21.37125 420.8615625 21.226875 420.129375 21.078125 419.375 C19.69221296 411.29051312 19.24029899 403.34945215 19.140625 395.15625 C19.11484375 394.12628906 19.0890625 393.09632813 19.0625 392.03515625 C19.04588043 385.65324112 19.72474448 381.78499311 23.515625 376.59375 C26.69884961 374.1532778 29.59488742 374.34170258 33.515625 374.59375 C36.7421875 375.80078125 36.7421875 375.80078125 40.140625 377.40625 C61.61596698 387.16672855 87.06617252 387.60830663 109.13671875 379.6484375 C111.34263052 378.73854668 113.41373632 377.72188234 115.515625 376.59375 C116.74345703 375.96533203 116.74345703 375.96533203 117.99609375 375.32421875 C128.47400534 369.57008576 134.45564962 361.48526545 138.703125 350.53125 C139.61496744 347.23458888 140.10843098 343.98703346 140.515625 340.59375 C140 340.34882813 139.484375 340.10390625 138.953125 339.8515625 C136.40552298 338.53693454 133.95787505 337.08374752 131.49169922 335.6237793 C119.26258895 328.47577823 106.31484367 322.96406166 92.578125 319.46875 C88.73325787 318.43620618 85.88802389 317.67163302 83.140625 314.71875 C81.31789855 311.21350682 80.85460341 309.47725184 81.515625 305.59375 C83.18324822 302.09968231 84.25568522 300.76704319 87.515625 298.59375 C106.64113358 296.60150952 132.50734055 310.4815033 147.453125 321.65625 C152.30896825 325.23687104 152.30896825 325.23687104 158.078125 325.96875 C160.26451283 325.45031071 160.26451283 325.45031071 162.515625 324.59375 C163.45019531 324.30886719 164.38476562 324.02398437 165.34765625 323.73046875 C180.41777719 318.41046457 188.97801005 306.33556329 196.0078125 292.69921875 C207.28591414 267.65622909 212.79290188 233.90800139 203.515625 207.59375 C199.60553058 198.11506605 194.33422975 188.2890989 185.515625 182.59375 C182.55014471 182.44771163 182.55014471 182.44771163 179.515625 183.59375 C178.87367188 183.78453125 178.23171875 183.9753125 177.5703125 184.171875 C171.25896976 186.23566008 166.48873846 189.38336004 163.265625 195.34375 C161.88538828 198.31182003 161.18700398 201.06189935 160.640625 204.28125 C159.99584338 207.52197849 159.26102843 209.38382833 156.828125 211.65625 C152.90313381 213.95199956 150.98449989 214.40627271 146.515625 213.59375 C143.34991753 210.97860035 140.77033402 208.76503997 140.27734375 204.5625 C139.91577133 192.53545962 145.71163963 182.79491986 153.515625 173.96875 C161.28561947 166.59413136 172.01212573 162.64409993 182.515625 161.59375 C183.36003017 150.88245553 183.36003017 150.88245553 179.21484375 141.36328125 C177.25331511 139.32058591 175.11434353 137.65838059 172.890625 135.90625 C167.91409232 131.757773 167.32670747 127.85003325 166.23046875 121.65234375 C164.94488879 116.15174754 161.97731678 113.22590994 157.37109375 110.171875 C155.11834678 108.86704711 152.87437552 107.69575824 150.515625 106.59375 C149.43796875 106.06136719 148.3603125 105.52898437 147.25 104.98046875 C143.01754743 103.40879442 139.66672726 103.09217433 135.203125 103.15625 C134.45619385 103.16454834 133.7092627 103.17284668 132.93969727 103.18139648 C123.60101949 103.46585919 117.02179136 106.40123288 110.1953125 112.7890625 C107.96532932 115.18499792 106.26942681 117.83777573 104.515625 120.59375 C101.86397128 123.43480756 100.53414929 123.59139771 96.578125 124.09375 C93.32616495 123.94178925 92.39914134 123.51852097 89.515625 121.65625 C87.23838291 118.16922305 86.65993771 116.23020476 86.90625 112.125 C88.93892007 103.68160123 95.43225676 96.34256761 102.515625 91.59375 C112.6247763 85.75051716 121.71541839 82.16465158 133.515625 82.59375 C130.65343645 70.79349896 125.89124814 62.21573473 115.515625 55.59375 C112.91630737 54.05009394 110.30574824 52.75539664 107.515625 51.59375 C106.85304688 51.31789062 106.19046875 51.04203125 105.5078125 50.7578125 C97.29991332 47.69877997 88.50501997 46.67405398 79.7890625 46.42578125 C78.98654053 46.3995166 78.18401855 46.37325195 77.35717773 46.34619141 C75.78682431 46.30377097 74.21569742 46.28296585 72.64477539 46.28662109 C68.68963 46.18546648 66.77112737 45.79717987 63.640625 43.3046875 C61.89931274 41.08323399 60.4196384 39.00297616 59.078125 36.53125 C55.59536341 30.75204248 50.90188132 28.38000244 44.515625 26.59375 C41.55843417 26.46235116 41.55843417 26.46235116 38.4921875 26.71484375 C23.7599654 27.3836611 11.06390121 26.46173009 -3.109375 22.34375 C-3.80504578 22.14538544 -4.50071655 21.94702087 -5.21746826 21.74264526 C-17.8093192 18.09254376 -17.8093192 18.09254376 -21.484375 13.59375 C-22.69698377 9.95592368 -22.87982052 7.41639001 -22.484375 3.59375 C-15.9581715 -4.30639108 -9.17635084 -3.01519659 0 0 Z " fill="#010100" transform="translate(283.484375,35.40625)"/>
<path d="M0 0 C3.82053324 1.69801477 5.49699978 3.13609235 7 7 C8.64835335 22.6058389 3.57066111 34.89353295 -6 46.80078125 C-7.86893783 48.8558828 -9.71971163 50.42721182 -12 52 C-10.44777764 56.00990777 -8.69622277 59.91048854 -6.90234375 63.81640625 C-4.71071805 69.11995068 -4.71451956 74.26928433 -4.625 79.9375 C-4.56892578 81.27844727 -4.56892578 81.27844727 -4.51171875 82.64648438 C-4.45062246 87.21852316 -4.4822648 89.31319054 -7.30859375 93.0625 C-10.72148833 95.51938782 -12.7953544 96.07376571 -17 96 C-21.02833331 93.9478302 -23.42968634 92.24272819 -25 88 C-25.1701674 85.62881491 -25.26613471 83.25183107 -25.3125 80.875 C-25.6735415 72.71842967 -27.67417484 65.79983908 -33.75 60.0625 C-41.77015451 54.97278656 -49.61801106 54.56613619 -58.890625 54.6484375 C-63.37116645 54.56647638 -65.3797339 54.47375909 -69.04296875 51.67578125 C-71.53065114 48.27445901 -72.07389407 46.21196225 -72 42 C-69.9312591 37.93913823 -68.21034419 35.69033007 -64 34 C-60.86614548 33.56305953 -57.72405173 33.62060285 -54.5625 33.625 C-53.67103271 33.62298584 -52.77956543 33.62097168 -51.86108398 33.61889648 C-45.20686833 33.72040045 -39.84108776 34.76590804 -33.62890625 37.22265625 C-30.56843728 38.12760918 -29.005076 38.02805232 -26 37 C-19.73289534 32.50488335 -16.38565099 26.15695296 -14 19 C-13.80663243 15.74283067 -13.68292056 12.48761685 -13.57421875 9.2265625 C-12.89852462 5.42980498 -11.65825312 3.74303793 -9 1 C-5.93570224 -0.53214888 -3.3834358 -0.22938548 0 0 Z " fill="#030202" transform="translate(160,214)"/>
<path d="M0 0 C3.83848755 2.5589917 6.19204719 5.17646443 8.8125 8.9375 C12.46936951 14.0590573 17.42298982 17.21149491 23 20 C32.78492272 21.05269892 41.13234511 18.73997469 49.25 13.25 C52.96542334 10.80843609 55.50075783 10.166807 60 11 C63.4375 12.9375 63.4375 12.9375 66 16 C67.0158346 20.28821781 66.61307243 23.74466121 64.6875 27.6875 C60.5430254 31.25367582 55.88447588 33.58758586 51 36 C50.18402344 36.40734375 49.36804688 36.8146875 48.52734375 37.234375 C43.9769776 39.38857922 40.01958699 40.57280111 35 41 C33.75725577 44.87856466 33.7797805 48.7809649 33.75 52.8125 C33.729375 53.49892578 33.70875 54.18535156 33.6875 54.89257812 C33.63739065 61.5132762 35.54635401 66.90023408 40.125 71.8125 C42.59828841 74.50112446 43.86764181 76.02937326 44.375 79.75 C43.8528401 84.2753858 42.15770622 85.7671103 39 89 C35.67739283 90.66130358 33.70539144 90.52934163 30 90 C19.48661124 83.08093218 14.53228925 73.04548399 12 61 C11.26008336 53.10755585 12.0624347 45.66376276 14 38 C12.7934375 37.7215625 12.7934375 37.7215625 11.5625 37.4375 C1.74252959 33.4750558 -8.73969923 23.83435067 -13 14 C-13.70689592 10.89655449 -13.5363312 9.27162035 -13 6 C-9.07404115 1.14420879 -6.25795636 -0.72207189 0 0 Z " fill="#040202" transform="translate(400,258)"/>
<path d="M0 0 C3.40307046 1.04615186 5.84930218 3.02895898 8.16015625 5.6640625 C9.59375 9.046875 9.59375 9.046875 10.59765625 12.7890625 C14.1919094 24.86581209 20.67329542 34.91820024 31.8984375 41.1953125 C40.73925933 45.40173395 48.34667274 46.8677791 58.109375 47.125 C61.8030662 47.77766247 63.48299471 49.08819897 66.16015625 51.6640625 C67.90301208 55.14977416 67.02374658 58.95919408 66.16015625 62.6640625 C63.914263 65.65858684 62.71146258 66.48029372 59.16015625 67.6640625 C47.90160828 68.60680726 36.29620793 66.73208834 26.16015625 61.6640625 C25.97453125 62.3240625 25.78890625 62.9840625 25.59765625 63.6640625 C20.57349125 74.14927641 10.09315771 81.14338826 -0.5859375 85.00390625 C-3.55879492 85.87463919 -5.77657185 86.23397355 -8.83984375 85.6640625 C-11.53975037 83.86412476 -13.38173025 82.5802895 -14.83984375 79.6640625 C-15.31811208 76.5825615 -15.37585939 73.74079225 -14.83984375 70.6640625 C-11.55174831 66.84276239 -7.78155741 65.09778406 -3.33984375 62.7890625 C1.29452266 60.32626396 5.89619439 57.60846977 8.16015625 52.6640625 C7.90526896 48.70398438 6.72869785 46.80118808 3.97265625 44.0390625 C-2.30018162 37.15174256 -5.88270409 28.99333282 -9.27734375 20.4140625 C-9.54877197 19.75277344 -9.8202002 19.09148437 -10.09985352 18.41015625 C-11.84787133 13.78124274 -12.02159318 10.45541292 -10.83984375 5.6640625 C-7.77248818 1.29540456 -5.364263 0.11014914 0 0 Z " fill="#030202" transform="translate(244.83984375,163.3359375)"/>
<path d="M0 0 C4.78953605 3.51232643 6.1192774 7.3217619 7 13 C7.22344964 17.00501244 7.19023685 20.99044279 7.125 25 C7.11597656 26.06089844 7.10695312 27.12179688 7.09765625 28.21484375 C7.07427524 30.81013638 7.04150556 33.40494465 7 36 C13.05617494 39.71779802 16.85192496 41.02980742 24 40 C29.35819716 38.60164123 34.37457753 37.08361498 39 34 C43.64367999 33.49525218 46.26712024 34.20034018 50 37 C52.47596556 40.71394834 52.64274969 43.69526853 52 48 C48.75880855 54.33505601 41.59435759 56.73820454 35.20703125 58.98046875 C23.53697099 62.33502049 12.51138136 62.54286979 1.48828125 57.19140625 C-1.63713932 55.6494254 -1.63713932 55.6494254 -5 55 C-6.89053612 56.24891971 -6.89053612 56.24891971 -8.625 58.125 C-14.91846567 64.02881395 -23.17606787 68.54873688 -31.9921875 68.40234375 C-34.88653289 67.82234847 -36.49122984 66.23200605 -38.1484375 63.84765625 C-39.80059921 60.26292007 -39.62367106 57.92912767 -39 54 C-36.15338833 49.7300825 -32.65560864 48.29317551 -28.0625 46.125 C-21.70786616 43.07665166 -17.87510418 39.93329935 -14.83984375 33.56640625 C-13.33392622 27.17150995 -14.04589306 20.56181507 -14.34179688 14.03320312 C-14.52956903 5.93011223 -14.52956903 5.93011223 -12.94384766 3.14501953 C-8.72644346 -1.16524495 -5.71487015 -1.35607088 0 0 Z " fill="#030101" transform="translate(87,136)"/>
<path d="M0 0 C15.85916956 8.07863712 27.20927026 23.42325269 33.03515625 39.93359375 C37.80473474 56.63821052 34.30530421 73.55508106 27 89 C24.94411414 92.24483189 22.72057801 95.27942199 20 98 C16.94602448 98.44169067 14.04969923 98.47716383 11 98 C7.47875104 95.21234457 5.29714022 92.98093483 4.625 88.5 C4.99854946 85.01353836 5.71453742 83.30196457 7.3125 80.25 C13.25677169 68.8342964 15.0628795 56.63905005 12.34375 43.93359375 C9.01230723 34.75776648 2.3622896 28.02238802 -4.9140625 21.7890625 C-12.71370735 15.09947947 -12.71370735 15.09947947 -13.375 10.25 C-12.8528401 5.7246142 -11.15770622 4.2328897 -8 1 C-5.00818583 -0.49590709 -3.3583794 -0.42743011 0 0 Z " fill="#050202" transform="translate(332,170)"/>
<path d="M0 0 C3.84987174 2.3526994 5.59852472 3.97623803 7.25 8.1875 C6.63033323 17.63741827 -1.38289968 25.77090715 -8 32 C-22.61859229 43.75893026 -38.93285643 45.47718784 -57 44 C-63.32130634 43.20092167 -68.66245194 41.52479589 -74 38 C-76.56570589 34.57905881 -76.43708054 31.15226516 -76 27 C-74.20437595 24.24670979 -72.94745078 22.47372539 -70 21 C-66.31088716 20.78299336 -63.41230126 20.86960973 -59.875 21.98828125 C-50.60962992 24.74291724 -36.86493551 24.80746775 -28.1640625 20.45703125 C-21.39004942 15.89618851 -15.82587948 10.38450849 -11.25390625 3.62890625 C-8.06934086 -0.50805252 -4.8810395 -0.57910638 0 0 Z " fill="#030201" transform="translate(283,269)"/>
<path d="M0 0 C7.03053259 6.46048941 12.81498711 16.53303477 14.16796875 26.00390625 C14.2925625 30.62853292 14.34693167 32.6969664 11.421875 36.46875 C7.60397716 39.28672221 5.56714447 39.87392348 0.796875 39.40625 C-3.92505576 36.4834997 -5.49316646 33.05388834 -7.203125 27.96875 C-9.27561518 21.84164966 -11.704512 17.62138672 -17.30078125 14.078125 C-18.27337891 13.62179688 -18.27337891 13.62179688 -19.265625 13.15625 C-19.91660156 12.84171875 -20.56757813 12.5271875 -21.23828125 12.203125 C-24.77607403 10.76831441 -27.79815655 10.29314886 -31.609375 10.44921875 C-32.43566406 10.47048828 -33.26195312 10.49175781 -34.11328125 10.51367188 C-35.84024543 10.56706971 -37.56688702 10.63218285 -39.29296875 10.70898438 C-45.61824787 10.84220008 -45.61824787 10.84220008 -48.734375 8.51953125 C-51.44745813 4.61586642 -51.97664056 1.0923152 -51.203125 -3.59375 C-48.37003215 -7.66632097 -45.43908573 -9.35288206 -40.56640625 -10.31640625 C-25.63446257 -12.06875005 -12.20760114 -8.83103061 0 0 Z " fill="#040202" transform="translate(314.203125,88.59375)"/>
<path d="M0 0 C3.50906933 1.90074589 4.66615341 3.06105647 6 6.8125 C6 10.93786009 5.02735596 13.4183378 3 17 C0.26410956 19.29223253 -1.47726097 19.92376722 -5 20.4375 C-8.77306522 19.88726132 -10.32400737 18.67599263 -13 16 C-15.28177464 12.74032194 -15.47992148 9.91935879 -15 6 C-10.87926484 -0.18110275 -7.11890885 -0.87295773 0 0 Z " fill="#020101" transform="translate(236,30)"/>
<path d="M0 0 C3.49406769 1.66762322 4.82670681 2.74006022 7 6 C7.67226891 12.94677871 7.67226891 12.94677871 5.125 16.9375 C1.89661432 20.07093316 -0.44929709 20.39218693 -4.9609375 20.359375 C-8.38006698 19.7567698 -9.93189052 17.63213933 -12 15 C-13.45147903 12.09704195 -13.37239025 10.22738221 -13 7 C-9.55818378 1.43915514 -6.51289739 -0.51081548 0 0 Z " fill="#080404" transform="translate(338,328)"/>
</svg>
